<svg xmlns="http://www.w3.org/2000/svg" viewBox="0 0 400 120">
  <defs>
    <linearGradient id="textGradient" x1="0%" y1="0%" x2="100%" y2="100%">
      <stop offset="0%" style="stop-color:#0ea5e9"/>
      <stop offset="100%" style="stop-color:#8b5cf6"/>
    </linearGradient>
  </defs>

  <!-- Cute Morkie Dog -->
  <g transform="translate(10, 10)">
    <!-- Dog body -->
    <ellipse cx="50" cy="65" rx="25" ry="20" fill="#c4a574"/>
    <!-- Dog head -->
    <circle cx="50" cy="40" r="22" fill="#d4b896"/>
    <!-- Ears -->
    <ellipse cx="32" cy="28" rx="8" ry="12" fill="#8b6914"/>
    <ellipse cx="68" cy="28" rx="8" ry="12" fill="#8b6914"/>
    <!-- Inner ears -->
    <ellipse cx="32" cy="30" rx="4" ry="6" fill="#ffb6c1"/>
    <ellipse cx="68" cy="30" rx="4" ry="6" fill="#ffb6c1"/>
    <!-- Face fur pattern -->
    <ellipse cx="50" cy="45" rx="12" ry="10" fill="#f5e6d3"/>
    <!-- Eyes -->
    <circle cx="42" cy="38" r="5" fill="#2d1810"/>
    <circle cx="58" cy="38" r="5" fill="#2d1810"/>
    <circle cx="43" cy="37" r="2" fill="white"/>
    <circle cx="59" cy="37" r="2" fill="white"/>
    <!-- Nose -->
    <ellipse cx="50" cy="48" rx="4" ry="3" fill="#2d1810"/>
    <ellipse cx="50" cy="47" rx="1.5" ry="1" fill="#5a4030"/>
    <!-- Mouth -->
    <path d="M46 52 Q50 56 54 52" stroke="#2d1810" stroke-width="1.5" fill="none"/>
    <!-- Tongue -->
    <ellipse cx="50" cy="55" rx="3" ry="4" fill="#ff6b8a"/>
    <!-- Tail -->
    <ellipse cx="78" cy="60" rx="8" ry="5" fill="#c4a574"/>
    <!-- Front paws -->
    <ellipse cx="38" cy="82" rx="6" ry="4" fill="#d4b896"/>
    <ellipse cx="62" cy="82" rx="6" ry="4" fill="#d4b896"/>
  </g>

  <!-- Text -->
  <text x="120" y="75" font-family="system-ui, -apple-system, BlinkMacSystemFont, 'Segoe UI', Roboto, sans-serif" font-size="56" font-weight="bold" fill="url(#textGradient)">Brim</text>

  <!-- Tagline -->
  <text x="122" y="100" font-family="system-ui, -apple-system, sans-serif" font-size="14" fill="#64748b">Semantic Search for Laravel</text>
</svg>
